<svg width="14" height="14" viewBox="0 0 14 14" fill="none" xmlns="http://www.w3.org/2000/svg">
<g clip-path="url(#clip0_12660_312460)">
<path fill-rule="evenodd" clip-rule="evenodd" d="M7 1.36585C3.8881 1.36585 1.36585 3.8881 1.36585 7C1.36585 10.1119 3.8881 12.6341 7 12.6341C10.1119 12.6341 12.6341 10.1119 12.6341 7C12.6341 3.8881 10.1119 1.36585 7 1.36585ZM0 7C0 3.13376 3.13376 0 7 0C10.8662 0 14 3.13376 14 7C14 10.8662 10.8662 14 7 14C3.13376 14 0 10.8662 0 7Z" fill="#C5C6C9"/>
<path fill-rule="evenodd" clip-rule="evenodd" d="M6.7688 3.48047C7.14597 3.48047 7.45173 3.78623 7.45173 4.1634V7.08573L9.69331 8.42295C10.0172 8.61618 10.1232 9.03541 9.92993 9.35932C9.7367 9.68323 9.31748 9.78917 8.99356 9.59594L6.41893 8.06004C6.21238 7.93682 6.08588 7.71405 6.08588 7.47354V4.1634C6.08588 3.78623 6.39163 3.48047 6.7688 3.48047Z" fill="#C5C6C9"/>
</g>
<defs>
<clipPath id="clip0_12660_312460">
<rect width="14" height="14" fill="white"/>
</clipPath>
</defs>
</svg>
