<svg width="18" height="18" viewBox="0 0 18 18" fill="none" xmlns="http://www.w3.org/2000/svg">
<path fill-rule="evenodd" clip-rule="evenodd" d="M7.10436 14.163C7.36079 13.9281 7.75546 13.9496 7.98588 14.211C8.59512 14.9023 9.49126 14.8965 10.0973 14.2105C10.328 13.9494 10.7227 13.9283 10.9788 14.1635C11.235 14.3987 11.2557 14.8011 11.0249 15.0622C9.9279 16.3041 8.16734 16.3211 7.05725 15.0617C6.82683 14.8003 6.84792 14.3979 7.10436 14.163Z" fill="#C5C6C9"/>
<path fill-rule="evenodd" clip-rule="evenodd" d="M9.06996 2C6.21345 2 4.27522 4.28499 4.27522 6.41961C4.27522 6.92977 4.21161 7.28007 4.12798 7.54432C4.04397 7.80977 3.93204 8.01478 3.7959 8.2471L3.75293 8.32002C3.62783 8.53182 3.47487 8.79077 3.35839 9.10148C3.22285 9.46306 3.13986 9.87941 3.13986 10.413C3.13986 10.4314 3.14064 10.4498 3.1422 10.468C3.18504 10.9713 3.32203 11.4269 3.5814 11.819L4.50016 10.8824C4.44583 10.745 4.40723 10.5819 4.38841 10.385C4.39116 10.0108 4.44911 9.75713 4.52458 9.55582C4.5995 9.35596 4.69525 9.19311 4.82591 8.97089L4.86763 8.89985C5.01533 8.64783 5.18724 8.34231 5.31611 7.93512C5.44536 7.52672 5.52367 7.04225 5.52367 6.41961C5.52367 5.01481 6.87624 3.27272 9.06996 3.27272C9.9501 3.27272 10.6948 3.55314 11.2711 3.97969L12.1618 3.07174C11.3545 2.42158 10.2969 2 9.06996 2ZM13.0315 3.98505L12.1345 4.89945C12.4482 5.38736 12.6163 5.92444 12.6163 6.41961C12.6163 7.04225 12.6946 7.52672 12.8238 7.93512C12.9527 8.34231 13.1246 8.64783 13.2723 8.89985L13.314 8.97089C13.4447 9.19311 13.5404 9.35596 13.6153 9.55582C13.6908 9.75713 13.7488 10.0108 13.7515 10.385C13.7178 10.7374 13.6201 10.9814 13.4816 11.164C13.3379 11.3535 13.1139 11.5247 12.7563 11.6675C12.011 11.9651 10.8322 12.0848 9.06996 12.0848C7.36897 12.0848 6.21198 11.9749 5.46331 11.7004L4.51911 12.663C4.64921 12.7346 4.78624 12.7984 4.92929 12.8554C5.91756 13.249 7.31306 13.3576 9.06996 13.3576C10.8278 13.3576 12.2233 13.2471 13.2116 12.8526C13.7208 12.6493 14.1534 12.359 14.4693 11.9424C14.7869 11.5237 14.9503 11.0249 14.9977 10.468C14.9993 10.4497 15.0001 10.4314 15.0001 10.413C15.0001 9.87941 14.9171 9.46306 14.7815 9.10148C14.6651 8.79077 14.5121 8.53182 14.387 8.32002L14.344 8.2471C14.2079 8.01478 14.096 7.80977 14.0119 7.54432C13.9283 7.28007 13.8647 6.92977 13.8647 6.41961C13.8647 5.58222 13.5664 4.7217 13.0315 3.98505Z" fill="#C5C6C9"/>
<rect width="15.1277" height="1.26064" rx="0.630321" transform="matrix(0.700264 -0.713884 0.700264 0.713884 3 13.6116)" fill="#C5C6C9"/>
</svg>
